<svg xmlns="http://www.w3.org/2000/svg" viewBox="0 0 349.39 350.18"><defs><style>.cls-1{fill:#fff;}</style></defs><g id="Camada_2" data-name="Camada 2"><g id="Camada_1-2" data-name="Camada 1"><path class="cls-1" d="M339.6,162.61h-235c-14,0-26.07,10.74-26.69,24.73a25.91,25.91,0,0,0,25.88,27.08h168a43.12,43.12,0,0,1,41.9,32.5c2.7,10.83,3.58,23.21-.46,35.22a184.61,184.61,0,0,0,36.14-109.65v-.1A9.78,9.78,0,0,0,339.6,162.61Z"/><path class="cls-1" d="M303.12,285.93c1.11-5.57,4.05-24.34-.48-35.79-2.44-6.15-5.79-12.07-10.63-16.08a130.95,130.95,0,1,1,11.61-84h36.54a22.1,22.1,0,0,1,8.42,1.66C337.13,66.06,263.85,0,175.09,0A175.09,175.09,0,1,0,293,304.49S301.21,295.46,303.12,285.93Z"/></g></g></svg>