<svg xmlns="http://www.w3.org/2000/svg" viewBox="0 0 735.91 350.18"><defs><style>.cls-1{fill:#fff;}</style></defs><g id="Camada_2" data-name="Camada 2"><g id="Camada_1-2" data-name="Camada 1"><path class="cls-1" d="M339.6,162.61h-235c-14,0-26.07,10.74-26.69,24.73a25.91,25.91,0,0,0,25.88,27.08h168a43.12,43.12,0,0,1,41.9,32.5c2.7,10.83,3.58,23.21-.46,35.22a184.61,184.61,0,0,0,36.14-109.65v-.1A9.78,9.78,0,0,0,339.6,162.61Z"/><path class="cls-1" d="M303.12,285.93c1.11-5.57,4.05-24.34-.48-35.79-2.44-6.15-5.79-12.07-10.63-16.08a130.95,130.95,0,1,1,11.61-84h36.54a22.1,22.1,0,0,1,8.42,1.66C337.13,66.06,263.85,0,175.09,0A175.09,175.09,0,1,0,293,304.49S301.21,295.46,303.12,285.93Z"/><path class="cls-1" d="M655.48,275.65h34.24V44.26s-7.41-6.77-17.16-7.87a36.17,36.17,0,0,0-17.08,2.34Z"/><path class="cls-1" d="M701.68,275.65h34.23V44.26s-7.4-6.77-17.15-7.87a36.1,36.1,0,0,0-17.08,2.34Z"/><rect class="cls-1" x="611.04" y="128.99" width="34.24" height="147.02"/><path class="cls-1" d="M645.27,114s-7.41-6.78-17.15-7.87A36.1,36.1,0,0,0,611,108.51v16.22h34.23Z"/><path class="cls-1" d="M542.14,109.16c-50.23-2.25-60.4,28.48-60.4,28.48-3.89-17.4-26.68-28.16-45.09-28.39-28-.36-43.26,12.15-43.26,12.15l-.05-6.25c-.9-.87-7.48-7.18-15.85-8.23A30.33,30.33,0,0,0,363,108.81v163.4c4.62-2.48,8.09-3.91,13.69-3.91A32.64,32.64,0,0,1,397.78,276V178.12c0-4.77-1.23-39.43,32.1-39.38,27.62,0,33.42,18.25,33.42,41.42v96.1h35.39v-99.5c0-11,3.08-37.33,33.88-36.36,25.61.81,31.64,16.59,31.64,44.19v91.67h35.4v-97.8C599.61,125.3,561.94,110.05,542.14,109.16Z"/></g></g></svg>