<?xml version="1.0" encoding="UTF-8"?><svg id="Camada_2" xmlns="http://www.w3.org/2000/svg" viewBox="0 0 549.06 148.27"><defs><style>.cls-1,.cls-2{fill:#354b9d;}.cls-1,.cls-3{fill-rule:evenodd;}.cls-4,.cls-3{fill:#00aa91;}</style></defs><g id="_Layer_1"><path class="cls-1" d="m112.07,47.5l-4.18-4.19-23.16,2.51,2.46-23.23-4.24-4.23-26.77,26.77-27.05-27.05-4.18,4.18,2.52,23.16-23.22-2.45-4.24,4.24,27.05,27.04L.27,101.05l4.19,4.18,23.16-2.51-2.45,23.23,4.24,4.24,26.76-26.76,26.76,26.76,4.18-4.18-2.51-23.16,23.22,2.45,4.24-4.24-26.76-26.77,26.79-26.79h0Zm-33.24,48.73h0l-.83.83,2.47,21.69-19.83-19.83-4.47-4.47h0s-.02-.02-.02-.02l-4.5,4.5h.02s-19.82,19.84-19.82,19.84l2.36-21.8-.83-.83-21.69,2.47,24.32-24.32-.29-.29-24.32-24.32,21.8,2.36.83-.83-2.47-21.69,24.32,24.32h0s.27.26.27.26l24.32-24.32-2.36,21.8.83.83,21.69-2.47-24.32,24.32h0s0,.02,0,.02l24.32,24.32-21.8-2.36Z"/><g><g><path class="cls-1" d="m180.76,117.83c.18,0,.33.07.46.21l1.28,1.38c-.71.88-1.58,1.55-2.61,2.02-1.03.46-2.28.7-3.73.7-1.3,0-2.46-.22-3.49-.66-1.03-.44-1.92-1.06-2.65-1.85-.73-.79-1.29-1.73-1.68-2.82-.39-1.09-.59-2.29-.59-3.59s.22-2.51.65-3.6c.43-1.09,1.05-2.03,1.84-2.82.79-.79,1.73-1.4,2.83-1.84,1.1-.44,2.31-.66,3.64-.66s2.43.21,3.4.62c.97.41,1.8.97,2.49,1.65l-1.09,1.51c-.07.1-.15.18-.25.26-.1.07-.24.11-.41.11-.19,0-.38-.07-.57-.22-.19-.15-.44-.3-.74-.47-.3-.17-.67-.33-1.13-.47-.45-.14-1.03-.22-1.73-.22-.82,0-1.57.14-2.26.43-.69.29-1.28.7-1.77,1.23-.5.53-.88,1.18-1.16,1.94-.27.76-.41,1.62-.41,2.56s.14,1.86.41,2.62c.28.77.66,1.41,1.13,1.93.48.53,1.03.92,1.68,1.2.64.28,1.33.41,2.08.41.44,0,.84-.02,1.2-.07.36-.05.69-.13.99-.23.3-.11.59-.24.86-.41.27-.16.53-.37.8-.61.08-.07.17-.13.25-.18.09-.04.19-.07.29-.07Z"/><path class="cls-1" d="m192,109.37c.92,0,1.77.15,2.52.45.75.3,1.39.72,1.92,1.27.53.55.94,1.21,1.23,2,.29.78.43,1.67.43,2.64s-.14,1.87-.43,2.66c-.29.79-.7,1.46-1.23,2.01-.53.56-1.17.98-1.92,1.28-.75.3-1.59.45-2.52.45s-1.77-.15-2.52-.45c-.76-.3-1.4-.72-1.94-1.28-.54-.55-.95-1.23-1.25-2.01-.29-.79-.44-1.68-.44-2.66s.15-1.85.44-2.64c.29-.79.71-1.46,1.25-2,.53-.55,1.18-.97,1.94-1.27.76-.3,1.6-.45,2.52-.45h0Zm0,10.47h0c1.03,0,1.79-.35,2.29-1.04.49-.69.74-1.7.74-3.04s-.25-2.35-.74-3.06c-.49-.7-1.26-1.05-2.29-1.05s-1.82.35-2.32,1.06c-.5.7-.75,1.72-.75,3.05s.25,2.34.75,3.03c.5.69,1.27,1.04,2.32,1.04Z"/><path class="cls-1" d="m202.36,121.95v-12.38h1.82c.39,0,.64.18.76.55l.2.98c.25-.26.51-.49.79-.7.28-.21.57-.39.88-.54.31-.16.64-.27,1-.35.35-.08.74-.12,1.16-.12.67,0,1.27.12,1.8.34.52.23.96.55,1.31.97.35.42.62.91.8,1.49.18.57.27,1.21.27,1.9v7.88h-2.98v-7.88c0-.76-.17-1.34-.53-1.76-.35-.42-.87-.63-1.57-.63-.52,0-1,.12-1.45.35-.45.23-.88.55-1.28.95v8.96h-2.98Z"/><path class="cls-1" d="m218.55,121.95v-10.14l-1.07-.17c-.23-.04-.42-.12-.56-.24-.14-.12-.21-.29-.21-.51v-1.22h1.85v-.92c0-.71.11-1.34.32-1.91.21-.56.52-1.04.92-1.44.4-.4.88-.69,1.45-.9.57-.21,1.22-.32,1.93-.32.57,0,1.1.08,1.59.23l-.06,1.5c-.02.23-.13.38-.33.43-.2.06-.43.08-.7.08-.36,0-.67.04-.95.11-.28.07-.51.21-.71.4-.19.19-.34.43-.44.75-.1.31-.15.7-.15,1.16v.82h3.22v2.13h-3.12v10.15h-2.98Z"/><path class="cls-1" d="m232.03,105.96c0,.26-.05.5-.16.73-.1.23-.24.42-.42.59-.17.17-.38.3-.61.4-.23.1-.48.15-.74.15s-.5-.05-.73-.15c-.23-.1-.43-.23-.6-.4-.17-.17-.3-.36-.4-.59-.1-.23-.15-.47-.15-.73s.05-.51.15-.75c.1-.23.23-.43.4-.6.17-.17.37-.3.6-.4.23-.1.47-.15.73-.15s.51.05.74.15c.24.1.44.23.61.4.18.17.31.37.42.6.11.24.16.48.16.75h0Zm-.45,3.61h0v12.38h-2.98v-12.38h2.98Z"/><path class="cls-1" d="m246.59,121.95h-1.34c-.28,0-.5-.04-.66-.13-.16-.08-.28-.26-.36-.51l-.27-.88c-.31.28-.62.53-.92.74-.3.22-.61.39-.93.54-.32.14-.67.25-1.03.32-.36.07-.76.11-1.21.11-.52,0-1-.07-1.45-.21-.44-.14-.82-.35-1.14-.64-.32-.28-.56-.63-.74-1.05-.18-.42-.26-.9-.26-1.46,0-.47.12-.93.37-1.38.25-.45.65-.86,1.23-1.23.57-.37,1.33-.67,2.28-.91.95-.24,2.13-.38,3.54-.41v-.73c0-.83-.17-1.44-.52-1.84-.35-.4-.86-.6-1.53-.6-.48,0-.89.06-1.21.17-.32.11-.6.24-.84.38-.24.14-.46.27-.65.38-.2.11-.42.17-.67.17-.2,0-.37-.05-.52-.16-.14-.1-.26-.23-.35-.38l-.54-.96c1.43-1.3,3.14-1.95,5.15-1.95.72,0,1.37.12,1.94.36.57.24,1.05.57,1.44.99.39.43.69.93.9,1.52.21.59.31,1.23.31,1.93v7.82h0Zm-5.79-1.86h0c.31,0,.59-.03.85-.09.25-.05.5-.14.73-.25.23-.11.45-.25.66-.42.22-.17.43-.36.65-.59v-2.09c-.87.04-1.59.11-2.18.23-.58.11-1.05.25-1.41.41-.36.17-.6.37-.76.59-.15.22-.22.47-.22.73,0,.52.16.9.46,1.12.31.22.72.34,1.22.34Z"/><path class="cls-1" d="m251.46,121.95v-12.38h1.82c.39,0,.64.18.76.55l.21.98c.25-.26.51-.49.79-.7.28-.21.57-.39.88-.54.31-.16.64-.27.99-.35.35-.08.74-.12,1.16-.12.68,0,1.28.12,1.8.34.52.23.96.55,1.31.97.35.42.61.91.8,1.49.18.57.27,1.21.27,1.9v7.88h-2.98v-7.88c0-.76-.18-1.34-.53-1.76-.35-.42-.88-.63-1.58-.63-.52,0-1,.12-1.45.35-.45.23-.88.55-1.28.95v8.96h-2.98Z"/><path class="cls-1" d="m270.4,124.69c.06,0,.12,0,.18.02.06.02.13.04.21.06.07.02.16.04.25.06.09.01.2.02.33.02.27,0,.47-.05.6-.15.13-.1.2-.23.2-.37,0-.23-.15-.4-.44-.5-.29-.1-.73-.19-1.34-.27l.46-1.52c-.65-.11-1.25-.33-1.8-.67-.56-.33-1.05-.77-1.45-1.3-.41-.53-.73-1.17-.97-1.89-.23-.73-.35-1.54-.35-2.45s.13-1.75.39-2.53c.26-.78.65-1.45,1.15-2.01.51-.57,1.13-1.01,1.89-1.34.74-.32,1.61-.48,2.58-.48s1.74.15,2.43.45c.7.3,1.32.73,1.88,1.28l-.78,1.09c-.09.11-.18.2-.26.27-.09.07-.21.1-.37.1s-.3-.05-.45-.14c-.15-.09-.32-.2-.52-.31-.2-.12-.44-.22-.72-.31-.28-.09-.62-.14-1.03-.14-.52,0-.98.1-1.38.29-.39.19-.72.46-.98.81-.26.36-.46.78-.59,1.29-.13.5-.19,1.07-.19,1.71s.07,1.25.21,1.77c.14.51.34.95.61,1.3.26.35.58.62.97.8.37.18.8.27,1.28.27s.86-.06,1.15-.18c.29-.12.54-.25.74-.39.2-.14.38-.27.53-.39.15-.11.31-.17.5-.17.21,0,.4.09.54.28l.86,1.08c-.56.65-1.18,1.13-1.87,1.43-.69.3-1.41.49-2.15.55l-.15.53c.72.18,1.22.42,1.51.72.29.3.44.66.44,1.07,0,.27-.07.51-.21.72-.14.22-.34.4-.6.56-.26.15-.57.27-.93.35-.36.08-.76.13-1.2.13-.33,0-.64-.03-.92-.07-.29-.04-.57-.11-.85-.2l.28-.92c.05-.19.16-.28.34-.28Z"/><path class="cls-1" d="m290.26,121.95h-1.34c-.28,0-.5-.04-.66-.13-.16-.08-.28-.26-.36-.51l-.26-.88c-.31.28-.62.53-.93.74-.3.22-.61.39-.93.54-.32.14-.67.25-1.03.32-.36.07-.76.11-1.21.11-.52,0-1.01-.07-1.45-.21-.44-.14-.83-.35-1.14-.64-.32-.28-.57-.63-.74-1.05-.18-.42-.27-.9-.27-1.46,0-.47.12-.93.37-1.38.24-.45.65-.86,1.23-1.23.57-.37,1.33-.67,2.28-.91.95-.24,2.13-.38,3.54-.41v-.73c0-.83-.17-1.44-.52-1.84-.35-.4-.86-.6-1.52-.6-.48,0-.89.06-1.21.17-.32.11-.6.24-.84.38-.24.14-.46.27-.66.38-.2.11-.42.17-.66.17-.2,0-.37-.05-.52-.16-.14-.1-.26-.23-.35-.38l-.54-.96c1.42-1.3,3.14-1.95,5.15-1.95.72,0,1.37.12,1.94.36.57.24,1.05.57,1.44.99.39.43.69.93.9,1.52.21.59.31,1.23.31,1.93v7.82h0Zm-5.79-1.86h0c.31,0,.59-.03.84-.09.26-.05.5-.14.73-.25.23-.11.45-.25.66-.42.22-.17.43-.36.65-.59v-2.09c-.87.04-1.59.11-2.18.23-.58.11-1.05.25-1.4.41-.36.17-.61.37-.76.59-.15.22-.22.47-.22.73,0,.52.15.9.47,1.12.31.22.72.34,1.21.34Z"/><path class="cls-1" d="m301.71,121.95v-12.38h1.82c.39,0,.64.18.76.55l.19.91c.22-.24.44-.46.68-.66.24-.2.49-.37.76-.52.27-.15.56-.26.87-.35.31-.09.65-.13,1.02-.13.78,0,1.42.21,1.93.63.5.42.88.98,1.13,1.68.19-.41.43-.76.72-1.05.29-.29.61-.53.96-.72.34-.19.72-.32,1.1-.41.39-.09.78-.13,1.18-.13.69,0,1.29.11,1.82.32.53.21.98.52,1.34.92.36.4.63.89.83,1.47.19.58.28,1.25.28,1.99v7.88h-2.98v-7.88c0-.79-.18-1.39-.52-1.78-.34-.4-.85-.6-1.52-.6-.3,0-.59.05-.85.16-.26.1-.49.25-.69.45-.2.2-.35.45-.46.74-.11.3-.17.64-.17,1.03v7.88h-2.99v-7.88c0-.83-.17-1.43-.5-1.81-.33-.38-.83-.57-1.48-.57-.43,0-.83.11-1.2.32-.37.22-.72.51-1.04.87v9.06h-2.98Z"/><path class="cls-1" d="m326.7,109.57v7.87c0,.76.18,1.34.53,1.75.35.42.88.62,1.57.62.52,0,.99-.11,1.45-.34.45-.23.88-.55,1.28-.95v-8.96h2.98v12.38h-1.82c-.38,0-.64-.18-.76-.54l-.2-.99c-.26.26-.52.49-.8.71-.27.21-.57.39-.87.54-.31.15-.65.27-1,.35-.36.08-.74.13-1.15.13-.68,0-1.28-.11-1.8-.34-.52-.23-.95-.55-1.31-.97-.36-.42-.62-.92-.8-1.49-.18-.57-.27-1.21-.27-1.9v-7.87h2.98Z"/><rect class="cls-2" x="339.82" y="104.02" width="2.98" height="17.93"/><path class="cls-1" d="m352.16,122.14c-1.07,0-1.89-.3-2.47-.91-.58-.6-.87-1.45-.87-2.52v-6.91h-1.25c-.16,0-.3-.05-.42-.16-.12-.1-.18-.26-.18-.47v-1.18l1.99-.33.63-3.38c.03-.16.11-.29.23-.38.11-.09.26-.13.44-.13h1.55v3.9h3.26v2.13h-3.26v6.71c0,.39.1.69.29.9.19.22.45.33.78.33.18,0,.34-.02.46-.07.13-.04.23-.09.33-.14.09-.05.17-.1.25-.14.07-.04.14-.07.22-.07.09,0,.16.02.22.07.05.04.11.11.18.2l.9,1.45c-.44.36-.94.64-1.5.82-.56.18-1.15.27-1.75.27Z"/><path class="cls-1" d="m362.99,105.96c0,.26-.05.5-.16.73-.1.23-.24.42-.41.59-.17.17-.37.3-.6.4-.24.1-.49.15-.75.15s-.5-.05-.73-.15c-.23-.1-.43-.23-.6-.4-.17-.17-.31-.36-.41-.59-.1-.23-.15-.47-.15-.73s.05-.51.15-.75c.1-.23.24-.43.41-.6.16-.17.37-.3.6-.4.23-.1.47-.15.73-.15s.52.05.75.15c.23.1.43.23.6.4.17.17.32.37.41.6.11.24.16.48.16.75h0Zm-.45,3.61h0v12.38h-2.98v-12.38h2.98Z"/><path class="cls-1" d="m367.84,125.99v-16.43h1.82c.19,0,.36.05.5.13.14.09.23.23.26.41l.24,1.14c.5-.57,1.08-1.04,1.72-1.39.65-.35,1.41-.53,2.28-.53.68,0,1.29.14,1.86.42.56.28,1.04.69,1.44,1.23.41.53.72,1.2.94,1.98.22.79.33,1.69.33,2.7,0,.93-.12,1.78-.37,2.57-.25.79-.6,1.47-1.07,2.05-.46.58-1.03,1.03-1.68,1.36-.66.33-1.39.49-2.2.49-.7,0-1.3-.11-1.78-.32-.48-.21-.92-.51-1.31-.88v5.07h-2.98Zm5.8-14.3h0c-.62,0-1.15.13-1.59.4-.44.26-.85.63-1.23,1.1v5.55c.34.42.7.71,1.11.87.4.17.82.25,1.28.25s.86-.09,1.22-.26c.37-.17.68-.43.93-.77.25-.34.44-.78.58-1.31.14-.53.2-1.15.2-1.87s-.06-1.34-.17-1.84c-.12-.5-.28-.91-.5-1.23-.22-.31-.48-.54-.79-.69-.31-.14-.66-.22-1.05-.22Z"/><rect class="cls-2" x="383.61" y="104.02" width="2.99" height="17.93"/><path class="cls-1" d="m395.52,105.96c0,.26-.05.5-.16.73-.1.23-.25.42-.42.59-.17.17-.37.3-.61.4-.23.1-.48.15-.75.15s-.5-.05-.73-.15c-.23-.1-.43-.23-.6-.4-.17-.17-.3-.36-.4-.59-.1-.23-.15-.47-.15-.73s.05-.51.15-.75c.1-.23.23-.43.4-.6.17-.17.37-.3.6-.4.23-.1.47-.15.73-.15.27,0,.51.05.75.15.24.1.44.23.61.4.17.17.32.37.42.6.1.24.16.48.16.75h0Zm-.45,3.61h0v12.38h-2.98v-12.38h2.98Z"/><path class="cls-1" d="m409.07,112.19c-.09.11-.18.2-.26.27-.08.07-.2.1-.36.1s-.3-.05-.45-.14c-.15-.09-.32-.2-.52-.31-.2-.12-.44-.22-.72-.31-.27-.09-.62-.14-1.03-.14-.52,0-.98.1-1.37.29-.39.19-.72.46-.98.81-.26.36-.46.78-.59,1.29-.13.5-.19,1.07-.19,1.71s.07,1.25.21,1.77c.14.51.34.95.61,1.3.27.35.59.62.97.8.38.18.8.27,1.28.27s.86-.06,1.15-.18c.29-.12.54-.25.74-.39.2-.14.38-.27.52-.39.15-.11.32-.17.5-.17.24,0,.42.09.54.28l.86,1.08c-.33.38-.69.71-1.07.97-.39.26-.79.47-1.2.63-.41.16-.84.27-1.28.33-.44.06-.88.1-1.32.1-.76,0-1.48-.14-2.16-.43-.68-.28-1.26-.7-1.77-1.25-.5-.55-.9-1.22-1.2-2.01-.29-.79-.44-1.7-.44-2.71,0-.91.13-1.75.39-2.53.26-.78.65-1.45,1.15-2.01.51-.57,1.14-1.01,1.88-1.34.75-.32,1.61-.48,2.58-.48s1.74.15,2.43.45c.7.3,1.32.73,1.87,1.28l-.78,1.09Z"/><path class="cls-1" d="m423.52,121.95h-1.34c-.28,0-.5-.04-.66-.13-.16-.08-.29-.26-.36-.51l-.27-.88c-.32.28-.62.53-.92.74-.3.22-.61.39-.94.54-.32.14-.66.25-1.02.32-.37.07-.77.11-1.21.11-.52,0-1-.07-1.44-.21-.44-.14-.82-.35-1.14-.64-.32-.28-.56-.63-.74-1.05-.18-.42-.26-.9-.26-1.46,0-.47.12-.93.37-1.38.25-.45.65-.86,1.22-1.23.57-.37,1.33-.67,2.28-.91.95-.24,2.13-.38,3.54-.41v-.73c0-.83-.17-1.44-.53-1.84-.34-.4-.85-.6-1.52-.6-.48,0-.89.06-1.21.17-.32.11-.6.24-.84.38-.24.14-.46.27-.66.38-.2.11-.42.17-.66.17-.2,0-.37-.05-.52-.16-.15-.1-.26-.23-.35-.38l-.54-.96c1.43-1.3,3.14-1.95,5.15-1.95.72,0,1.37.12,1.94.36.57.24,1.05.57,1.44.99.39.43.69.93.9,1.52.2.59.31,1.23.31,1.93v7.82h0Zm-5.8-1.86h0c.31,0,.59-.03.85-.09.26-.05.5-.14.73-.25.23-.11.45-.25.67-.42.22-.17.43-.36.64-.59v-2.09c-.87.04-1.59.11-2.17.23-.58.11-1.06.25-1.41.41-.36.17-.61.37-.76.59-.15.22-.23.47-.23.73,0,.52.16.9.47,1.12.31.22.72.34,1.21.34Z"/><path class="cls-1" d="m437.1,121.95c-.39,0-.64-.18-.76-.54l-.24-1.2c-.26.29-.52.55-.81.78-.28.23-.58.43-.91.6-.33.17-.68.3-1.05.39-.37.1-.78.14-1.21.14-.67,0-1.29-.14-1.86-.42-.57-.29-1.05-.69-1.46-1.23-.4-.53-.72-1.2-.94-1.99-.22-.79-.33-1.69-.33-2.7,0-.92.12-1.77.37-2.56.25-.79.61-1.47,1.07-2.05.47-.58,1.02-1.03,1.68-1.36.65-.33,1.39-.49,2.2-.49.7,0,1.28.11,1.78.33.49.22.93.52,1.31.89v-6.54h2.98v17.93h-1.82Zm-3.97-2.18h0c.62,0,1.14-.13,1.58-.39.43-.26.84-.62,1.23-1.1v-5.55c-.34-.41-.7-.7-1.1-.87-.4-.17-.83-.25-1.28-.25s-.86.08-1.23.25c-.37.17-.67.42-.93.77-.25.34-.45.78-.58,1.3-.14.53-.2,1.15-.2,1.87s.06,1.34.17,1.84c.12.5.29.91.5,1.23.21.32.48.55.8.69.32.14.66.21,1.05.21Z"/><path class="cls-1" d="m453.78,121.95h-1.34c-.28,0-.5-.04-.66-.13-.16-.08-.28-.26-.36-.51l-.27-.88c-.31.28-.62.53-.92.74-.3.22-.61.39-.93.54-.32.14-.67.25-1.03.32-.37.07-.77.11-1.21.11-.52,0-1-.07-1.45-.21-.44-.14-.82-.35-1.14-.64-.32-.28-.56-.63-.74-1.05-.17-.42-.26-.9-.26-1.46,0-.47.12-.93.37-1.38.24-.45.65-.86,1.23-1.23.57-.37,1.33-.67,2.28-.91.95-.24,2.13-.38,3.54-.41v-.73c0-.83-.17-1.44-.53-1.84-.35-.4-.85-.6-1.52-.6-.48,0-.88.06-1.21.17-.32.11-.6.24-.84.38-.23.14-.45.27-.66.38-.2.11-.42.17-.66.17-.2,0-.38-.05-.52-.16-.14-.1-.26-.23-.35-.38l-.55-.96c1.43-1.3,3.14-1.95,5.15-1.95.72,0,1.37.12,1.94.36.57.24,1.05.57,1.44.99.4.43.69.93.9,1.52.21.59.31,1.23.31,1.93v7.82h0Zm-5.79-1.86h0c.31,0,.59-.03.85-.09.26-.05.5-.14.73-.25.23-.11.45-.25.66-.42.21-.17.43-.36.65-.59v-2.09c-.87.04-1.59.11-2.18.23-.58.11-1.05.25-1.41.41-.36.17-.61.37-.75.59-.15.22-.23.47-.23.73,0,.52.16.9.47,1.12.31.22.72.34,1.21.34Z"/><path class="cls-1" d="m465.23,125.99v-16.43h1.82c.19,0,.36.05.5.13.13.09.22.23.26.41l.24,1.14c.5-.57,1.07-1.04,1.72-1.39.65-.35,1.41-.53,2.27-.53.68,0,1.29.14,1.85.42.56.28,1.04.69,1.45,1.23.4.53.72,1.2.94,1.98.22.79.33,1.69.33,2.7,0,.93-.13,1.78-.37,2.57-.25.79-.61,1.47-1.07,2.05-.46.58-1.02,1.03-1.67,1.36-.66.33-1.39.49-2.2.49-.7,0-1.3-.11-1.78-.32-.49-.21-.93-.51-1.31-.88v5.07h-2.98Zm5.79-14.3h0c-.62,0-1.15.13-1.59.4-.44.26-.85.63-1.22,1.1v5.55c.34.42.7.71,1.1.87.4.17.83.25,1.29.25s.86-.09,1.22-.26c.37-.17.68-.43.93-.77.25-.34.45-.78.58-1.31.14-.53.21-1.15.21-1.87s-.06-1.34-.17-1.84c-.12-.5-.29-.91-.5-1.23-.22-.31-.48-.54-.79-.69-.31-.14-.66-.22-1.06-.22Z"/><path class="cls-1" d="m486.1,109.37c.93,0,1.77.15,2.52.45.75.3,1.4.72,1.92,1.27.53.55.94,1.21,1.23,2,.29.78.43,1.67.43,2.64s-.15,1.87-.43,2.66c-.29.79-.7,1.46-1.23,2.01-.53.56-1.17.98-1.92,1.28-.75.3-1.59.45-2.52.45s-1.76-.15-2.52-.45c-.75-.3-1.4-.72-1.93-1.28-.54-.55-.95-1.23-1.24-2.01-.3-.79-.45-1.68-.45-2.66s.15-1.85.45-2.64c.29-.79.7-1.46,1.24-2,.53-.55,1.18-.97,1.93-1.27.76-.3,1.6-.45,2.52-.45h0Zm0,10.47h0c1.03,0,1.79-.35,2.29-1.04.49-.69.74-1.7.74-3.04s-.25-2.35-.74-3.06c-.5-.7-1.26-1.05-2.29-1.05s-1.82.35-2.31,1.06c-.5.7-.75,1.72-.75,3.05s.25,2.34.75,3.03c.5.69,1.27,1.04,2.31,1.04Z"/><path class="cls-1" d="m496.47,121.95v-12.38h1.75c.3,0,.52.06.64.17.12.11.2.31.24.58l.18,1.5c.44-.76.96-1.37,1.56-1.81.6-.44,1.26-.66,2-.66.61,0,1.12.14,1.52.42l-.39,2.24c-.02.14-.08.24-.16.31-.08.06-.19.09-.33.09-.12,0-.28-.03-.5-.09-.21-.05-.48-.08-.83-.08-.62,0-1.15.17-1.59.51-.44.34-.82.85-1.12,1.5v7.71h-2.98Z"/><path class="cls-1" d="m514.85,121.95v-12.38h1.82c.39,0,.64.18.76.55l.19.91c.22-.24.44-.46.68-.66.24-.2.49-.37.76-.52.27-.15.56-.26.87-.35.31-.09.65-.13,1.02-.13.78,0,1.42.21,1.92.63.5.42.88.98,1.13,1.68.2-.41.44-.76.73-1.05.29-.29.61-.53.96-.72.34-.19.71-.32,1.1-.41.39-.09.78-.13,1.17-.13.69,0,1.29.11,1.82.32.53.21.98.52,1.34.92.36.4.64.89.82,1.47.19.58.29,1.25.29,1.99v7.88h-2.98v-7.88c0-.79-.17-1.39-.52-1.78-.35-.4-.85-.6-1.52-.6-.3,0-.59.05-.85.16-.26.1-.49.25-.69.45-.2.2-.35.45-.46.74-.11.3-.17.64-.17,1.03v7.88h-2.99v-7.88c0-.83-.17-1.43-.5-1.81-.33-.38-.83-.57-1.48-.57-.43,0-.83.11-1.2.32-.37.22-.72.51-1.05.87v9.06h-2.98Z"/><path class="cls-1" d="m540.73,105.96c0,.26-.06.5-.16.73-.11.23-.25.42-.41.59-.18.17-.38.3-.61.4-.24.1-.48.15-.75.15s-.5-.05-.73-.15c-.23-.1-.43-.23-.6-.4-.18-.17-.3-.36-.41-.59-.1-.23-.15-.47-.15-.73s.05-.51.15-.75c.1-.23.23-.43.41-.6.17-.17.37-.3.6-.4.23-.1.47-.15.73-.15s.51.05.75.15c.23.1.44.23.61.4.17.17.31.37.41.6.1.24.16.48.16.75h0Zm-.45,3.61h0v12.38h-2.98v-12.38h2.98Z"/><rect class="cls-2" x="545.78" y="104.02" width="2.98" height="17.93"/></g><g><path class="cls-3" d="m201.31,65.01c.43,1.04.86,2.08,1.28,3.13.42-1.08.85-2.14,1.31-3.2.45-1.05.93-2.06,1.44-3.02l19.28-36.08c.24-.45.49-.81.74-1.08.25-.27.54-.46.86-.59.31-.12.67-.2,1.06-.22.39-.03.86-.05,1.4-.05h9.14v65.13h-10.63v-42.07c0-.78.02-1.64.07-2.57.04-.93.11-1.88.2-2.84l-19.72,36.93c-.45.84-1.04,1.49-1.76,1.96-.72.47-1.57.7-2.53.7h-1.67c-.96,0-1.8-.23-2.53-.7-.72-.47-1.31-1.12-1.76-1.96l-19.99-37.07c.12.99.21,1.96.25,2.9.05.94.07,1.82.07,2.63v42.07h-10.63V23.91h9.14c.54,0,1.01.02,1.39.05.39.03.75.11,1.06.22.31.12.61.32.88.59.27.27.53.63.77,1.08l19.46,36.17c.51.96.98,1.96,1.42,3Z"/><path class="cls-3" d="m262.05,29.36c0,.96-.2,1.86-.59,2.7-.39.84-.91,1.58-1.56,2.21-.65.63-1.4,1.13-2.27,1.51-.87.38-1.8.56-2.79.56s-1.87-.19-2.73-.56c-.86-.38-1.6-.88-2.23-1.51-.63-.63-1.14-1.37-1.51-2.21-.37-.84-.56-1.74-.56-2.7s.19-1.92.56-2.8c.37-.87.88-1.62,1.51-2.25.63-.63,1.37-1.13,2.23-1.51.85-.38,1.76-.56,2.73-.56s1.92.19,2.79.56c.87.38,1.63.88,2.27,1.51.65.63,1.16,1.38,1.56,2.25.39.87.59,1.81.59,2.8h0Zm-1.67,13.46h0v46.22h-11.13v-46.22h11.13Z"/><rect class="cls-4" x="271.86" y="22.11" width="11.12" height="66.93"/><rect class="cls-4" x="294.48" y="22.11" width="11.12" height="66.93"/><path class="cls-3" d="m335.46,42.11c2.91,0,5.6.47,8.04,1.4,2.45.93,4.56,2.29,6.33,4.08,1.77,1.79,3.15,3.97,4.14,6.57.99,2.6,1.49,5.57,1.49,8.9,0,.84-.04,1.54-.11,2.09-.08.56-.21.99-.4,1.3-.2.32-.46.54-.79.68-.33.13-.75.2-1.26.2h-28.55c.33,4.74,1.61,8.23,3.83,10.45,2.22,2.22,5.16,3.34,8.83,3.34,1.8,0,3.35-.21,4.66-.63,1.3-.42,2.45-.88,3.42-1.4.97-.51,1.83-.98,2.57-1.4.73-.42,1.45-.63,2.14-.63.45,0,.84.09,1.17.27.33.18.62.44.86.77l3.24,4.06c-1.23,1.44-2.61,2.65-4.14,3.63-1.53.98-3.13,1.76-4.8,2.34-1.67.59-3.36,1-5.09,1.24-1.73.24-3.41.36-5.03.36-3.21,0-6.2-.53-8.96-1.6-2.76-1.07-5.17-2.64-7.21-4.73-2.04-2.09-3.65-4.67-4.82-7.75-1.17-3.08-1.76-6.64-1.76-10.7,0-3.15.51-6.12,1.53-8.9,1.02-2.78,2.49-5.19,4.39-7.25,1.91-2.05,4.23-3.68,6.98-4.88,2.74-1.2,5.85-1.8,9.3-1.8h0Zm.23,7.97h0c-3.24,0-5.78.92-7.61,2.75-1.83,1.83-3.01,4.43-3.52,7.79h20.9c0-1.44-.2-2.8-.59-4.08-.39-1.27-.99-2.39-1.8-3.35-.81-.96-1.83-1.72-3.06-2.28-1.23-.55-2.67-.83-4.33-.83Z"/><path class="cls-3" d="m362.72,89.04v-46.22h6.8c1.44,0,2.39.68,2.84,2.03l.77,3.65c.93-.96,1.92-1.83,2.95-2.61,1.03-.78,2.13-1.46,3.29-2.03,1.16-.57,2.39-1.01,3.71-1.31,1.32-.3,2.76-.45,4.33-.45,2.52,0,4.76.43,6.71,1.29,1.95.85,3.58,2.06,4.89,3.6,1.3,1.55,2.3,3.39,2.97,5.54.67,2.15,1.01,4.51,1.01,7.09v29.41h-11.13v-29.41c0-2.82-.65-5-1.96-6.55-1.31-1.55-3.27-2.32-5.88-2.32-1.92,0-3.72.44-5.41,1.31-1.68.87-3.27,2.06-4.78,3.56v33.42h-11.12Z"/><path class="cls-3" d="m425.64,29.36c0,.96-.2,1.86-.58,2.7-.39.84-.91,1.58-1.56,2.21-.64.63-1.4,1.13-2.27,1.51-.87.38-1.8.56-2.79.56s-1.87-.19-2.73-.56c-.85-.38-1.6-.88-2.23-1.51-.63-.63-1.14-1.37-1.51-2.21-.37-.84-.56-1.74-.56-2.7s.19-1.92.56-2.8c.37-.87.88-1.62,1.51-2.25.63-.63,1.37-1.13,2.23-1.51.85-.38,1.76-.56,2.73-.56s1.92.19,2.79.56c.87.38,1.63.88,2.27,1.51.65.63,1.16,1.38,1.56,2.25.39.87.58,1.81.58,2.8h0Zm-1.66,13.46h0v46.22h-11.13v-46.22h11.13Z"/><path class="cls-3" d="m444.92,42.83v29.37c0,2.82.65,5.01,1.96,6.55,1.3,1.55,3.26,2.32,5.87,2.32,1.92,0,3.73-.43,5.41-1.29,1.68-.86,3.27-2.04,4.77-3.53v-33.43h11.13v46.22h-6.81c-1.44,0-2.39-.68-2.84-2.03l-.77-3.69c-.96.96-1.95,1.84-2.97,2.64-1.02.8-2.11,1.47-3.26,2.03-1.16.55-2.4.99-3.74,1.31-1.33.31-2.77.47-4.3.47-2.52,0-4.75-.43-6.69-1.28-1.94-.86-3.57-2.06-4.89-3.63-1.33-1.56-2.32-3.41-3-5.56-.67-2.15-1.01-4.51-1.01-7.1v-29.37h11.13Z"/><path class="cls-3" d="m484.15,89.04v-46.22h6.8c1.44,0,2.39.68,2.84,2.03l.72,3.42c.81-.9,1.66-1.73,2.55-2.47.88-.75,1.83-1.4,2.84-1.94,1-.54,2.09-.97,3.24-1.29,1.16-.31,2.42-.47,3.81-.47,2.91,0,5.3.79,7.18,2.36,1.87,1.58,3.28,3.67,4.21,6.28.72-1.53,1.62-2.84,2.71-3.94,1.08-1.1,2.27-1.99,3.56-2.68,1.29-.69,2.66-1.2,4.12-1.53,1.45-.33,2.92-.49,4.39-.49,2.56,0,4.82.39,6.8,1.17,1.98.78,3.65,1.92,5,3.42,1.35,1.5,2.38,3.33,3.08,5.49.71,2.16,1.06,4.64,1.06,7.43v29.41h-11.13v-29.41c0-2.94-.65-5.15-1.94-6.64-1.29-1.49-3.18-2.23-5.67-2.23-1.14,0-2.2.2-3.18.58-.97.39-1.83.95-2.56,1.69-.74.74-1.32,1.66-1.73,2.77-.42,1.11-.63,2.39-.63,3.83v29.41h-11.16v-29.41c0-3.09-.63-5.35-1.88-6.75-1.24-1.41-3.08-2.12-5.51-2.12-1.59,0-3.09.4-4.49,1.19-1.39.79-2.69,1.89-3.89,3.27v33.83h-11.13Z"/></g></g><rect class="cls-4" x="137.51" width="3.54" height="148.27"/></g></svg>